<svg xmlns="http://www.w3.org/2000/svg" viewBox="0 0 95 41.51"><defs><style>.cls-1{fill:#63b2e7;}.cls-2{fill:#ffaf3a;}.cls-3{fill:#ff675d;}.cls-4{fill:#fff;}</style></defs><title>Asset 1</title><g id="Layer_2" data-name="Layer 2"><g id="Layer_1-2" data-name="Layer 1"><path class="cls-1" d="M14.67,29.51h0A14.67,14.67,0,1,1,29.33,14.85,14.67,14.67,0,0,1,14.67,29.51"/><polygon class="cls-2" points="95 29.51 65.67 29.51 65.67 0.18 95 29.51"/><rect class="cls-3" x="32.83" width="29.33" height="29.33"/><rect class="cls-4" x="38.66" y="13.67" width="17.68" height="2" transform="translate(3.54 37.88) rotate(-45)"/><path class="cls-4" d="M19.26,37.23c0,2-.4,2.53-2.2,2.53s-2.19-.5-2.19-2.53.39-2.54,2.19-2.54,2.2.5,2.2,2.54m-3.29,0c0,1.27.13,1.58,1.1,1.58s1.1-.32,1.1-1.58-.13-1.59-1.1-1.59-1.1.32-1.1,1.59"/><path class="cls-4" d="M24.57,37.18c0,2-.4,2.57-2.07,2.57a9.45,9.45,0,0,1-1.14-.05v1.67c0,.1,0,.15-.14.15h-.83c-.09,0-.14,0-.14-.15V35c0-.11.06-.16.17-.18a10.68,10.68,0,0,1,1.92-.16c1.82,0,2.22.52,2.22,2.49m-3.21-1.55v3.12a9.31,9.31,0,0,0,1,.05c1,0,1.15-.3,1.15-1.58s-.1-1.58-1.1-1.58Z"/><path class="cls-4" d="M29.67,37.13v.27c0,.17-.06.24-.31.24H26.51c0,1,.24,1.17,1.12,1.17h1.54a.12.12,0,0,1,.13.13v.56a.14.14,0,0,1-.13.15,11.29,11.29,0,0,1-1.61.1c-1.76,0-2.15-.5-2.15-2.53s.4-2.54,2.15-2.54,2.09.49,2.11,2.44m-3.16-.27h2.06c0-1-.21-1.22-1-1.22s-1,.25-1.05,1.22"/><path class="cls-4" d="M34.86,36.82v2.76a.13.13,0,0,1-.15.14H33.9a.12.12,0,0,1-.14-.14V37c0-1.33-.21-1.39-1.05-1.39h-1v3.94a.12.12,0,0,1-.13.14h-.83c-.09,0-.13,0-.13-.14V35c0-.12,0-.13.13-.14a10.79,10.79,0,0,1,2-.14c1.67,0,2.13.25,2.13,2.13"/><path class="cls-4" d="M41.12,34.79c.09,0,.13.06.13.15v.53c0,.09,0,.13-.14.13H39.45c-.38,0-.59.12-.59.4v.11c0,.22.12.39.49.53l1.18.43a1.21,1.21,0,0,1,.92,1.31v.12c0,1-.68,1.26-1.86,1.26-.78,0-1.46-.05-1.76-.08-.11,0-.14-.05-.14-.13V39c0-.1,0-.14.14-.14h1.75c.6,0,.79-.07.79-.39v-.09c0-.22-.11-.36-.51-.51l-1.19-.45a1.29,1.29,0,0,1-.9-1.32v-.18c0-1,.81-1.21,1.94-1.21a9.23,9.23,0,0,1,1.4.1"/><path class="cls-4" d="M46.47,37.13v.27c0,.17-.06.24-.31.24H43.31c0,1,.24,1.17,1.12,1.17H46a.12.12,0,0,1,.14.13v.56a.14.14,0,0,1-.13.15,11.29,11.29,0,0,1-1.61.1c-1.76,0-2.15-.5-2.15-2.53s.4-2.54,2.15-2.54,2.09.49,2.11,2.44m-3.16-.27h2.06c0-1-.21-1.22-1-1.22s-1,.25-1.05,1.22"/><path class="cls-4" d="M51.65,36.82v2.76a.13.13,0,0,1-.15.14H50.7a.12.12,0,0,1-.14-.14V37c0-1.33-.21-1.39-1.05-1.39h-1v3.94a.12.12,0,0,1-.13.14h-.83c-.09,0-.13,0-.13-.14V35c0-.12,0-.13.13-.14a10.79,10.79,0,0,1,2-.14c1.67,0,2.13.25,2.13,2.13"/><path class="cls-4" d="M56,34.79c.09,0,.13.06.13.15v.53c0,.09,0,.13-.14.13H54.31c-.38,0-.59.12-.59.4v.11c0,.22.12.39.49.53l1.18.43a1.21,1.21,0,0,1,.92,1.31v.12c0,1-.68,1.26-1.86,1.26-.78,0-1.46-.05-1.76-.08-.11,0-.13-.05-.13-.13V39c0-.1,0-.14.14-.14h1.75c.6,0,.79-.07.79-.39v-.09c0-.22-.11-.36-.51-.51l-1.19-.45a1.29,1.29,0,0,1-.9-1.32v-.18c0-1,.81-1.21,1.94-1.21a9.23,9.23,0,0,1,1.4.1"/><path class="cls-4" d="M61.33,37.13v.27c0,.17-.05.24-.31.24H58.17c0,1,.24,1.17,1.12,1.17h1.54a.12.12,0,0,1,.14.13v.56a.14.14,0,0,1-.13.15,11.29,11.29,0,0,1-1.61.1c-1.76,0-2.15-.5-2.15-2.53s.4-2.54,2.15-2.54,2.09.49,2.11,2.44m-3.16-.27h2.06c0-1-.21-1.22-1-1.22s-1,.25-1.05,1.22"/><path class="cls-4" d="M64.32,32.82h.82a.13.13,0,0,1,.13.13v6.62a.14.14,0,0,1-.14.14h-.82a.14.14,0,0,1-.14-.14V33A.14.14,0,0,1,64.32,32.82Z"/><path class="cls-4" d="M70.26,36.16V39.3a.23.23,0,0,1-.18.26,8.35,8.35,0,0,1-2,.2c-1.26,0-1.9-.2-1.9-1.5,0-1.14.6-1.43,1.71-1.43h1.3v-.47c0-.5-.3-.72-1-.72H66.68c-.11,0-.13,0-.13-.13v-.55c0-.11,0-.13.13-.14a8,8,0,0,1,1.49-.12c1.58,0,2.11.5,2.11,1.48M67.93,37.6c-.48,0-.69.15-.69.6s.24.64.91.64a4.84,4.84,0,0,0,1-.1V37.6Z"/><path class="cls-4" d="M72.34,32.83c.09,0,.14,0,.14.14v1.77a10,10,0,0,1,1.15-.05c1.66,0,2.05.54,2.05,2.54s-.39,2.53-2.21,2.53a10.77,10.77,0,0,1-1.93-.16c-.11,0-.17-.06-.17-.19V33c0-.1,0-.14.14-.14Zm.14,2.8v3.11a7.92,7.92,0,0,0,1,.07c1,0,1.11-.36,1.11-1.58s-.13-1.59-1.13-1.59Z"/><path class="cls-4" d="M79.88,34.79c.09,0,.13.06.13.15v.53c0,.09,0,.13-.14.13H78.22c-.38,0-.59.12-.59.4v.11c0,.22.12.39.49.53l1.18.43a1.21,1.21,0,0,1,.92,1.31v.12c0,1-.68,1.26-1.86,1.26-.78,0-1.46-.05-1.76-.08-.11,0-.13-.05-.13-.13V39c0-.1,0-.14.14-.14h1.75c.6,0,.79-.07.79-.39v-.09c0-.22-.11-.36-.51-.51l-1.19-.45a1.29,1.29,0,0,1-.9-1.32v-.18c0-1,.81-1.21,1.94-1.21a9.23,9.23,0,0,1,1.4.1"/></g></g></svg>